<?xml version="1.0" encoding="UTF-8"?>
<svg id="Ebene_1" data-name="Ebene 1" xmlns="http://www.w3.org/2000/svg" viewBox="0 0 720.02 962.95">
  <defs>
    <style>
      .cls-1 {
        fill: #fff;
        stroke: #fff;
        stroke-miterlimit: 10;
      }
    </style>
  </defs>
  <path class="cls-1" d="m719.27,331.77c-4.57.08-8.07,3.14-11.48,6.1-.47.39-.92.79-1.39,1.18-6.87,5.81-12.58,12.99-17.39,19.27-23.04,30.07-40.25,54.52-55.68,79.17.73-34.4-6.36-70.67-20.06-102.58,1.31-1.39,2.51-2.71,3.71-4,1.35-1.45,2.69-2.92,4.2-4.51,6.91-7.36,14.05-14.95,23.06-19.76,9.93-5.32,20.63-5.95,28.65-1.73,2.47,1.3,4.77,3.1,7.01,4.85,3.24,2.53,6.59,5.16,10.66,6.42,3.51,1.08,7.26,1.04,10.89,1,4.45-.06,8.65-.12,12.32,1.81,4.36,2.28,6.54,7.46,5.49,12.8Z"/>
  <path class="cls-1" d="m606.54,453.94c-4.96,39.03-28.36,70.4-47.12,89.84-23.49,24.34-51.95,43.57-79.62,62.07,3.08-35.5-10.54-71.06-25.75-104.21l-3.06-6.67c-13.56-29.4-27.55-59.76-29.87-91.92,3.91,1.61,8.16,3.06,12.64,4.57,10.05,3.43,20.45,6.97,28.4,12.6.43.65.88,1.28,1.33,1.92l.63-.45c.06.04.14.08.2.14l.51-.65.26-.18s-.04-.06-.06-.08l.51-.63c-.65-.53-1.31-1.02-2-1.51-64.25-91.85-78.79-212.46-38.13-316.2,7.58,46.69,21.71,92,42.06,134.75l1.69-.8.67-.14c-14.13-70.85,1.49-152.82,44.04-232.22-14.09,51.18-9.81,112.41,12.74,182.24,9.54,29.5,21.41,58.68,32.87,86.92,13.07,32.19,26.59,65.45,36.7,99.24,6.77,22.65,14.07,52.36,10.38,81.37Z"/>
  <path class="cls-1" d="m614.2,612.29c-14.46,20.92-35.17,38.74-67.14,57.8-9.71,5.79-19.8,11.32-29.56,16.7-16.03,8.81-32.62,17.92-48.02,28.38-49.63,33.72-90.41,86.8-112.3,146.05-14.58-35.13-9.05-80.4,14.78-119.03,23.53-38.15,59.88-65.76,92.3-87.74,9.18-6.22,18.66-12.38,27.83-18.35,26.3-17.11,53.48-34.81,77.24-56.07,34.07-30.48,56.58-66.59,64.02-102.44,5.48,47.18,7.63,95.95-19.15,134.71Z"/>
  <path class="cls-1" d="m444.4,536.56c-34.95-6.61-68.51-18.57-99.81-35.54-5.65-3.06-11.56-6.46-16.29-11.26-4.71-4.79-7.48-10.36-7.89-15.84l43.19-3.89-.18-1.96-1.06.1.02-.24c-57.84-6.97-113.51-32.26-156.79-71.26-42.68-38.48-73.36-90.35-86.55-146.31,33.42,32.22,74.38,56.87,118.46,71.34l.63-1.86c-.35-.12-.73-.24-1.08-.37l.04-.02c-10.4-15.19-25.3-26.96-39.68-38.35-11.95-9.44-24.3-19.21-34.03-30.89-15.09-18.11-23.63-40.21-31.87-61.58-8.48-22-17.23-44.67-21.14-68.18,18.25,41.19,54.87,70.69,88.67,94.26,54.68,38.11,113.79,69.81,175.76,94.18l18.57,57.56c1.57,4.87,3.2,9.93,3.69,15.07.45,5.04-.18,10.22-.8,15.23-.18,1.39-.33,2.81-.49,4.22-2.14,19.8.29,40.17,7.05,58.91,5.53,15.43,13.95,29.71,22.08,43.53l19.51,33.15Z"/>
  <path class="cls-1" d="m467.89,614.08c-52.89,23.18-97.69,66.04-123.15,117.83-8.22,16.74-14.62,34.58-20.8,51.83-6.63,18.49-13.5,37.62-22.61,55.34-34.6,67.33-105.5,115.57-180.85,123.09,53.91-25.65,97.99-71.83,121.03-126.92,7.07-16.88,12.3-34.8,17.37-52.1,6.54-22.33,13.31-45.41,24.04-66.41,17.23-33.66,45.08-62.03,78.42-79.87,34.4-18.41,71.18-26.28,106.54-22.78Z"/>
  <path class="cls-1" d="m448.23,577.22c-67.57,4.73-130.76,37.84-180.55,83.82-10.28,9.5-20.06,19.86-29.48,29.89-13.19,14.01-26.83,28.52-42.04,40.74-46.3,37.23-109.19,52.87-167.78,43.29-8.62-2.26-17.15-5.18-26.22-8.32,65.86-8.62,127.41-39.23,174.04-86.66,9.83-10.03,19.11-20.92,28.1-31.44,14.25-16.72,28.99-33.99,46.22-48.08,54.01-44.08,134.94-53.52,197.7-23.24Z"/>
</svg>